<svg id="OBJECTS" xmlns="http://www.w3.org/2000/svg" viewBox="0 0 321.49 354.54"><defs><style>.cls-1{fill:#404040;}.cls-2{fill:#1b1a19;}.cls-3{fill:#231f20;}.cls-4{fill:#4c0101;}.cls-5{fill:#737373;}.cls-6{fill:#a6a6a6;}.cls-7,.cls-8,.cls-9{fill:#fff;}.cls-8{font-size:43.88px;font-family:HighJersey, High Jersey;}.cls-9{font-size:9.03px;font-family:Westerion-Regular, Westerion;}.cls-10{font-family:Apple-Chancery, Apple Chancery;}</style></defs><path class="cls-1" d="M400.65,147.77S363.14,297.26,250.11,371.89L250,372l-.11-.07c-113-74.63-150.54-224.12-150.54-224.12l150.54-65.9.11-.05.11.05Z" transform="translate(-89.25 -72.73)"/><path class="cls-2" d="M250,86.51l145.54,63.71a472.14,472.14,0,0,1-31.7,79.89,424.78,424.78,0,0,1-46,72.71c-20.53,25.91-43.35,47.42-67.87,64-24.51-16.55-47.34-38.07-67.87-64a424.78,424.78,0,0,1-46-72.71,472.14,472.14,0,0,1-31.7-79.89L250,86.51m0-4.69-.11.05L99.35,147.77s37.51,149.49,150.54,224.12l.11.07.11-.07c113-74.63,150.54-224.12,150.54-224.12L250.11,81.87l-.11-.05Z" transform="translate(-89.25 -72.73)"/><path class="cls-3" d="M375.26,161.11S344.07,285.4,250.09,347.45l-.09.06-.09-.06c-94-62.05-125.17-186.34-125.17-186.34l125.17-54.79.09,0,.09,0Z" transform="translate(-89.25 -72.73)"/><path class="cls-2" d="M250,111l120.14,52.59a392.72,392.72,0,0,1-26.06,65.53,352.21,352.21,0,0,1-38.15,60.41C289,310.86,270.2,328.63,250,342.35c-20.16-13.69-38.94-31.42-55.85-52.76A352.93,352.93,0,0,1,156,229.27a393.24,393.24,0,0,1-26.15-65.72L250,111m0-4.69-.09,0L124.74,161.11S155.93,285.4,249.91,347.45l.09.06.09-.06c94-62.05,125.17-186.34,125.17-186.34L250.09,106.32l-.09,0Z" transform="translate(-89.25 -72.73)"/><polygon class="cls-4" points="159.96 18.91 159.96 18.89 159.94 18.9 159.91 18.89 159.91 18.91 20.11 77.9 35.84 77.9 159.24 26.04 160.62 26.04 284.02 77.9 299.75 77.9 159.96 18.91"/><path class="cls-4" d="M317.54,295.13c4.41-5.77,8.61-11.53,12.57-17.16h-6.78c-4.34,6.1-8.68,11.81-13,17.16Z" transform="translate(-89.25 -72.73)"/><path class="cls-4" d="M305.41,301.22c-28.92,34.71-53.62,51.86-53.62,51.86v7.15c22.08-14.16,43.1-36.34,61-59Z" transform="translate(-89.25 -72.73)"/><path class="cls-4" d="M335.54,270.1c3-4.44,5.85-8.76,8.5-12.88h-6.92q-4.14,6.67-8.33,12.88Z" transform="translate(-89.25 -72.73)"/><path class="cls-4" d="M351,246.13c10.3-16.76,16.31-28.25,16.31-28.25l-11.09,4.65q-6,12.39-12.49,23.6Z" transform="translate(-89.25 -72.73)"/><path class="cls-4" d="M182.46,295.13c-4.41-5.77-8.61-11.53-12.57-17.16h6.78c4.34,6.1,8.68,11.81,13,17.16Z" transform="translate(-89.25 -72.73)"/><path class="cls-4" d="M194.59,301.22c28.92,34.71,53.62,51.86,53.62,51.86v7.15c-22.08-14.16-43.1-36.34-61-59Z" transform="translate(-89.25 -72.73)"/><path class="cls-4" d="M164.46,270.1c-3-4.44-5.85-8.76-8.5-12.88h6.92q4.14,6.67,8.33,12.88Z" transform="translate(-89.25 -72.73)"/><path class="cls-4" d="M149,246.13c-10.3-16.76-16.31-28.25-16.31-28.25l11.09,4.65q6,12.39,12.49,23.6Z" transform="translate(-89.25 -72.73)"/><path class="cls-1" d="M344.76,185.36H338.2l1.82-42c-15.47-48.21-81-45.5-90.39-46.71a5.13,5.13,0,0,0-.57-.07,5,5,0,0,0-.56.07c-9.39,1.21-74.94-1.5-90.41,46.71l1.83,42h-6.57v42.08h8.4l3.32,76.49S202.47,342.1,248.5,348l.56.07.57-.07c46-5.9,83.42-44.07,83.42-44.07l3.32-76.49h8.39Z" transform="translate(-89.25 -72.73)"/><path class="cls-5" d="M169.81,258.82H323.58l-12.42,55s-41.6,41.94-89.92,21.13l-44-26.84-3-19.12Z" transform="translate(-89.25 -72.73)"/><polygon class="cls-6" points="80.56 186.09 217.22 186.14 165.36 202.65 169.38 196.3 80.56 186.09"/><polygon class="cls-6" points="97 232.85 92.97 196.34 145.81 211.41 103.79 209.29 107.19 224.79 99.76 215.87 97 232.85"/><rect class="cls-4" x="99.87" y="99.72" width="119.82" height="74.75"/><path class="cls-1" d="M168,241.64c.57.19,16.79,64.51,16.79,64.51l-14.89-23.29Z" transform="translate(-89.25 -72.73)"/><polygon class="cls-1" points="225.86 204.22 202.19 248.49 228.15 230.75 225.86 204.22"/><polygon class="cls-6" points="88.07 182.17 94.5 178.95 226.84 178.95 231.85 183.24 88.07 182.17"/><polygon class="cls-5" points="92.89 129.77 97.19 98.29 121.15 95.61 91.46 95.07 92.89 129.77"/><polygon class="cls-5" points="226.84 129.77 222.55 98.29 198.59 95.61 228.28 95.07 226.84 129.77"/><polygon class="cls-5" points="163.54 67.89 160.5 66.64 142.79 73.25 171.31 77.81 110.42 91.14 181.6 90.96 177.49 72.9 163.54 67.89"/><polygon class="cls-5" points="79.87 91.07 84.19 180.27 78.26 191.59 73.68 77.33 79.87 91.07"/><polygon class="cls-5" points="255.62 119.48 251.18 121.61 247.12 154.72 249.63 112.14 255.51 112.63 255.62 119.48"/><polygon class="cls-5" points="64.95 119.2 69.22 121.65 70.8 154.97 71.46 112.33 65.57 112.38 64.95 119.2"/><path class="cls-5" d="M273.49,101.81l-28.7-.54L279,113.75l-4.56,1.34,39.3,17S297.23,105.83,273.49,101.81Z" transform="translate(-89.25 -72.73)"/><circle class="cls-7" cx="93.84" cy="82.27" r="3.54"/><path class="cls-7" d="M197.09,153.26a3.54,3.54,0,1,1-3.54-3.54A3.54,3.54,0,0,1,197.09,153.26Z" transform="translate(-89.25 -72.73)"/><circle class="cls-7" cx="114.76" cy="78.79" r="3.54"/><circle class="cls-7" cx="125.22" cy="76.75" r="3.54"/><path class="cls-7" d="M286.4,149.58a3.54,3.54,0,1,1-3.54-3.54A3.53,3.53,0,0,1,286.4,149.58Z" transform="translate(-89.25 -72.73)"/><path class="cls-7" d="M297,151.61a3.54,3.54,0,1,1-3.54-3.53A3.55,3.55,0,0,1,297,151.61Z" transform="translate(-89.25 -72.73)"/><circle class="cls-7" cx="214.63" cy="80.92" r="3.54"/><path class="cls-7" d="M318.37,155.39a3.54,3.54,0,1,1-3.54-3.54A3.55,3.55,0,0,1,318.37,155.39Z" transform="translate(-89.25 -72.73)"/><polygon class="cls-5" points="83.91 64.89 85.65 71.2 156.74 63.69 83.91 64.89"/><polygon class="cls-5" points="235.39 64.89 233.65 71.2 162.56 63.69 235.39 64.89"/><polygon class="cls-5" points="180.07 70.48 189.65 81.95 215.54 88.69 186.22 84.43 180.07 70.48"/><polygon class="cls-5" points="139.62 70.48 130.04 81.95 104.15 88.69 133.47 84.43 139.62 70.48"/><path class="cls-5" d="M224.71,102.17c-17.7,2.5-48.11,32.55-48.11,32.55l64.56,1.79,69.75-4.3Z" transform="translate(-89.25 -72.73)"/><polygon class="cls-7" points="87.8 181.72 95.58 179.31 158.22 179.17 181.42 182.26 87.8 181.72"/><polygon class="cls-7" points="140.24 72.14 160.63 64.22 179.27 72.14 175.12 75.49 160.76 67.84 140.24 72.14"/><polygon class="cls-7" points="255.3 115.03 252 115.95 249.09 119.92 249.63 112.14 255.44 111.98 255.3 115.03"/><polygon class="cls-7" points="63.76 115.03 67.07 115.95 69.98 119.92 69.44 112.14 63.63 111.98 63.76 115.03"/><polygon class="cls-7" points="227.27 111.08 225.01 97.82 215.73 95.28 228.65 94.8 227.27 111.08"/><polygon class="cls-7" points="91.92 111.08 94.19 97.82 103.46 95.28 90.55 94.8 91.92 111.08"/><path class="cls-7" d="M314.94,258.94h7.57l-.33,3.95s-24.52,24.19-85.91,18.1c0,0,44.44-1.65,54.48-8.72,0,0-8.89.49-11.52,1.64Z" transform="translate(-89.25 -72.73)"/><path class="cls-6" d="M187.33,118.26s4.65-22.53,69.21-21.1C256.54,97.16,220.42,96.62,187.33,118.26Z" transform="translate(-89.25 -72.73)"/><path class="cls-7" d="M198.91,111.22a150.82,150.82,0,0,1,51.94-13.85S216.81,95.35,198.91,111.22Z" transform="translate(-89.25 -72.73)"/><path class="cls-6" d="M224.17,101.63l21.64,12.52-22.17-1.61L294,134l-45,2.4-66.79-3.49S210.58,107,224.17,101.63Z" transform="translate(-89.25 -72.73)"/><polygon class="cls-2" points="151.38 15.13 151.38 15.23 151.27 15.17 151.38 15.13"/><polygon class="cls-2" points="151.27 15.17 151.16 15.23 151.16 15.13 151.27 15.17"/><path class="cls-2" d="M339.43,184.17l1.77-40.75v-.21l-.06-.2c-15.82-49.3-83.69-46.53-91.34-47.52-.26,0-.48-.07-.66-.08H249a5.28,5.28,0,0,0-.62.08c-7.69,1-75.56-1.78-91.38,47.52l-.07.2,1.78,41h-6.51v44.45h8.45L163.89,304l0,.45.32.33c.37.38,38.21,38.52,84.13,44.41l.7.09.72-.09c45.89-5.89,83.73-44,84.11-44.41l.32-.33,3.29-75.81h8.44V184.17Zm-184.9,42.09V186.53h4.26l1.72,39.73Zm177.36,77.16c-3.73,3.66-39.53,37.9-82.41,43.41l-.42.05-.41-.05c-42.88-5.5-78.7-39.75-82.42-43.41l-6.95-159.89c15.49-47.73,81.85-44.73,89.41-45.71l.37,0,.42.06c7.52,1,73.86-2,89.35,45.7Zm11.69-77.16h-6l1.73-39.73h4.25Z" transform="translate(-89.25 -72.73)"/><path d="M309.91,248.3l2-77.25H186.22l2,77.25Zm-7.29-36.52h4.7l-13.66,24.86H289Zm-22.24-35.21-17.26,31.69h-4.7l17.26-31.69Zm-8.5,0-35.59,64.8H210.45L246,176.54Zm-57.94,0h4.7L199.5,211.39h-4.7Zm8.81,0h14.09L203.47,237.3v-.85H189.84Z" transform="translate(-89.25 -72.73)"/><path class="cls-2" d="M181.78,252.83H316.34l2.22-86.31h-139Zm134.36-84L314,250.47h-130L182,168.88Z" transform="translate(-89.25 -72.73)"/><path d="M328.46,158.73l-6.17,92.34,2.27-88.24h-3.85l-1-.15-5.16-.81L299,159.44,276.75,156l-7.41-12.8L252,136.76l72.82,1.43s-6.17-27.26-51.77-36.38c0,0,31.65,18.24,34.87,29.24l-56.81,5.37-2-.75-2.09.78-57.11-5.4c3.22-11,34.87-29.24,34.87-29.24C179.2,110.93,173,138.19,173,138.19l73.23-1.44L229,143.23,221.58,156c-2.42.37-12.31,1.88-22.2,3.41-5.7.88-11.39,1.75-15.66,2.42l-5.16.81-1,.16h-4L176,256.52h146l-.22,3.22s-19.38,22.91-70.18,19.68c0,0-54-2.94-72.82-18.21l5.57,21.44,2.94-10.87s43.46,16.45,58.44,16.15v42.29l10-24.67,8.52-1.47,11.74-17.32L309.67,278v37.59l19.09-13.81L336.1,150.8Zm-106-.46.56-.08,7.55-13.05,18.52-6.95,18.59,6.95,7.55,13.05.56.08,29.59,4.56H192.84Zm97.35,95.89H178.26L176,165.34H322.13Z" transform="translate(-89.25 -72.73)"/><path class="cls-2" d="M267.77,264.65c7.06.6,4,3.63,4,3.63l-.61,2.42,35.71-11.9H193.77l-19.25-.19s-2.87-46.85-3.3-43.84l-2.43,44.93,26.09-.59Z" transform="translate(-89.25 -72.73)"/><path class="cls-2" d="M174.31,287.55l2.7,22.61c30.5,24.07,60.58,31.54,60.58,31.54l-56.85-35.27Z" transform="translate(-89.25 -72.73)"/><polygon class="cls-2" points="182.66 86.84 177.25 72.71 162.87 67.62 174.98 75.38 174.98 79.01 166.58 82.56 176.36 87.01 117.16 90 210.92 90 182.66 86.84"/><path class="cls-2" d="M330.72,143.85l-2.94,11.75,7.24-7.83s1-15.66-11.74-24.28C323.28,123.49,331.11,136.41,330.72,143.85Z" transform="translate(-89.25 -72.73)"/><path class="cls-2" d="M168.45,143.85c-.4-7.44,7.43-20.36,7.43-20.36-12.72,8.62-11.74,24.28-11.74,24.28l7.24,7.83Z" transform="translate(-89.25 -72.73)"/><path class="cls-2" d="M187.76,155.34a4.59,4.59,0,1,0-4.59,4.59A4.59,4.59,0,0,0,187.76,155.34Zm-6.77.43a3.09,3.09,0,0,0,1.21.26,3.05,3.05,0,0,0,2.46-1.23,2,2,0,0,1-2,2.45,5.87,5.87,0,0,0,2.11-.36,2.26,2.26,0,0,1-1.6.68A2.23,2.23,0,0,1,181,155.77Z" transform="translate(-89.25 -72.73)"/><path class="cls-2" d="M182.66,157.25h0Z" transform="translate(-89.25 -72.73)"/><path class="cls-2" d="M198.33,153.44a4.59,4.59,0,1,0-4.58,4.58A4.59,4.59,0,0,0,198.33,153.44Zm-6.76.42a3,3,0,0,0,1.2.26,3.09,3.09,0,0,0,2.47-1.23,2,2,0,0,1-2,2.45,5.87,5.87,0,0,0,2.11-.36,2.21,2.21,0,0,1-3.77-1.12Z" transform="translate(-89.25 -72.73)"/><path class="cls-2" d="M193.23,155.34h0Z" transform="translate(-89.25 -72.73)"/><path class="cls-2" d="M208.9,151.53a4.59,4.59,0,1,0-4.58,4.58A4.59,4.59,0,0,0,208.9,151.53Zm-6.76.42a3,3,0,0,0,1.2.26,3.09,3.09,0,0,0,2.47-1.23,2,2,0,0,1-2,2.45,5.87,5.87,0,0,0,2.11-.36,2.21,2.21,0,0,1-3.77-1.12Z" transform="translate(-89.25 -72.73)"/><path class="cls-2" d="M203.8,153.43h0Z" transform="translate(-89.25 -72.73)"/><path class="cls-2" d="M219.47,149.62a4.58,4.58,0,1,0-4.58,4.58A4.59,4.59,0,0,0,219.47,149.62Zm-6.76.42a3,3,0,0,0,1.2.27,3.12,3.12,0,0,0,2.47-1.23,2,2,0,0,1-2,2.44,5.65,5.65,0,0,0,2.11-.36,2.2,2.2,0,0,1-1.59.68A2.23,2.23,0,0,1,212.71,150Z" transform="translate(-89.25 -72.73)"/><path class="cls-2" d="M214.37,151.52h0Z" transform="translate(-89.25 -72.73)"/><path class="cls-2" d="M310,155.34a4.58,4.58,0,1,0,4.58-4.58A4.59,4.59,0,0,0,310,155.34Zm6.76.43a2.21,2.21,0,0,1-3.77,1.12,5.76,5.76,0,0,0,2.1.36,2,2,0,0,1-2-2.45,3.07,3.07,0,0,0,2.46,1.23A3,3,0,0,0,316.76,155.77Z" transform="translate(-89.25 -72.73)"/><path class="cls-2" d="M315.09,157.25h0Z" transform="translate(-89.25 -72.73)"/><path class="cls-2" d="M299.43,153.44a4.58,4.58,0,1,0,4.58-4.59A4.59,4.59,0,0,0,299.43,153.44Zm6.76.42a2.23,2.23,0,0,1-2.18,1.8,2.18,2.18,0,0,1-1.59-.68,5.76,5.76,0,0,0,2.1.36,2,2,0,0,1-2-2.45,3,3,0,0,0,3.67,1Z" transform="translate(-89.25 -72.73)"/><path class="cls-2" d="M304.52,155.34h0Z" transform="translate(-89.25 -72.73)"/><path class="cls-2" d="M288.86,151.53a4.58,4.58,0,1,0,4.58-4.59A4.59,4.59,0,0,0,288.86,151.53Zm6.76.42a2.22,2.22,0,0,1-3.78,1.12,5.87,5.87,0,0,0,2.11.36,2,2,0,0,1-2-2.45,3.05,3.05,0,0,0,2.46,1.23A3.09,3.09,0,0,0,295.62,152Z" transform="translate(-89.25 -72.73)"/><path class="cls-2" d="M294,153.43h0Z" transform="translate(-89.25 -72.73)"/><path class="cls-2" d="M278.28,149.62a4.59,4.59,0,1,0,4.59-4.58A4.59,4.59,0,0,0,278.28,149.62ZM285,150a2.21,2.21,0,0,1-3.77,1.12,5.65,5.65,0,0,0,2.11.36,2,2,0,0,1-2-2.44,3.08,3.08,0,0,0,2.46,1.23A3,3,0,0,0,285,150Z" transform="translate(-89.25 -72.73)"/><path class="cls-2" d="M283.38,151.52h0Z" transform="translate(-89.25 -72.73)"/><path class="cls-7" d="M250,75l2.86,1.42,0,0,0,0,47.64,20.85.07,0,.08,0a96.33,96.33,0,0,1,14.43,6.31l.08,0,.08,0,88,38.5,5.11,2.24-1.36,5.4c-.72,2.88-18.26,71.38-65.26,139.4l-.32.48,0,.57-.58,13.33-.21,4.86,3.57-3.3L369.33,282l13.22-12.24-2.21,17.88-6.76,54.66-.28,2.24h1v80.77H125.74V344.5h1l-.28-2.24-6.75-54.66-2.22-17.88L130.67,282l23.16,21.44,3.57,3.3-.21-4.86-.63-14.46,0-.57-.32-.47C110.71,219.25,93.66,152.68,93,149.88l-1.36-5.4,5.11-2.24,80.79-35.36,13.31-5.83,13.31-5.82,42.93-18.79,0,0,.05,0L250,75m0-2.24-3.76,1.87L203.32,93.4,176.7,105.05,95.9,140.41l-6.65,2.91L91,150.37c.71,2.84,17.85,69.73,63.54,137.09l.63,14.47L132,280.49l-17.23-16,2.88,23.31,6.76,54.66h-.7v84.77H376.26V342.5h-.7l6.76-54.66,2.88-23.31-17.23,16-25.12,23.26.58-13.33c47.2-68.32,64.82-137.13,65.55-140l1.77-7.05-6.65-2.91-88-38.5a97.41,97.41,0,0,0-14.74-6.45L253.75,74.61,250,72.73Z" transform="translate(-89.25 -72.73)"/><polygon points="46.29 342.23 46.29 281.07 48.54 281.07 41.22 221.9 105.12 281.07 216.37 281.07 280.27 221.9 272.95 281.07 275.2 281.07 275.2 342.23 46.29 342.23"/><path class="cls-2" d="M134.75,303l56.51,52.32,1.85,1.72H306.89l1.85-1.72L365.25,303l-5.79,46.81-.89,7.23h2.67v54.72H138.76V357h2.67l-.89-7.23L134.75,303m239.05-16.7-69.43,64.3H195.63l-69.43-64.3,8,64.3h-1.82v67.6H367.67v-67.6h-1.82l7.95-64.3Z" transform="translate(-89.25 -72.73)"/><polygon class="cls-7" points="54.44 285.71 266.55 285.71 161.03 287.5 54.44 285.71"/><text x="-89.25" y="-72.73"/><text x="-89.25" y="-72.73"/><polygon class="cls-4" points="272.89 236.53 245 263.9 256.26 258.71 232.93 284.19 270.93 253.52 260.56 253.88 272.89 236.53"/><polygon class="cls-4" points="48.9 236.53 76.8 263.9 65.53 258.71 88.87 284.19 50.87 253.52 61.24 253.88 48.9 236.53"/><polygon class="cls-4" points="239.72 284.19 265.83 284.19 269.94 260.23 263.33 275.79 257.07 271.32 239.72 284.19"/><polygon class="cls-4" points="82.16 284.19 56.05 284.19 51.94 260.23 58.56 275.79 64.82 271.32 82.16 284.19"/><polyline class="cls-4" points="203.95 335.52 204.31 335.52 268.33 335.52 268.33 326.4 247.63 326.4 259.08 332.71"/><polyline class="cls-4" points="118.65 335.52 118.29 335.52 54.27 335.52 54.27 326.4 74.97 326.4 63.52 332.71"/><text class="cls-8" transform="translate(82.3 320.09) scale(1.74 1)">WALIGO</text><text class="cls-9" transform="translate(78.1 332.72) scale(2.61 1)">AND SON<tspan class="cls-10" x="20.87" y="0">’</tspan><tspan x="22.74" y="0">S FUBURICATION</tspan></text></svg>